<svg xmlns="http://www.w3.org/2000/svg" version="1.1" xmlns:xlink="http://www.w3.org/1999/xlink" xmlns:svgjs="http://svgjs.dev/svgjs" width="1500" height="1500" viewBox="0 0 1500 1500"><rect width="1500" height="1500" fill="#0a1627"></rect><g transform="matrix(0.6666666666666666,0,0,0.6666666666666666,249.39393939393938,605.7117088847157)"><svg viewBox="0 0 396 107" data-background-color="#0a1627" preserveAspectRatio="xMidYMid meet" height="405" width="1500" xmlns="http://www.w3.org/2000/svg" xmlns:xlink="http://www.w3.org/1999/xlink"><g id="tight-bounds" transform="matrix(1,0,0,1,0.2400000000000091,3.7202930952759345)"><svg viewBox="0 0 395.52 103.45836488265597" height="103.45836488265597" width="395.52"><g><svg viewBox="0 0 397.4975999999999 103.97565670706923" height="103.45836488265597" width="395.52"><g><rect width="397.4975999999999" height="3.1846370375948783" x="0" y="57.140450103114475" fill="#c1c1c1" opacity="1" stroke-width="0" stroke="transparent" fill-opacity="1" class="rect-yte-0" data-fill-palette-color="secondary" rx="1%" id="yte-0" data-palette-color="#c1c1c1"></rect></g><g transform="matrix(1,0,0,1,0.9887999999999693,68.6618333124237)"><svg viewBox="0 0 395.52 35.31382339464554" height="35.31382339464554" width="395.52"><g id="textblocktransform"><svg viewBox="0 0 395.52 35.31382339464554" height="35.31382339464554" width="395.52" id="textblock"><g><svg viewBox="0 0 395.52 35.31382339464554" height="35.31382339464554" width="395.52"><g transform="matrix(1,0,0,1,0,0)"><svg width="395.52" viewBox="3.25 -33.48 381.89 34.11" height="35.31382339464554" data-palette-color="#fe0039"><path d="M7.28 0L3.25 0 4.48-31.95 10.9-31.95 18.48-8.85 18.82-8.85 26.4-31.95 32.85-31.95 34.08 0 30.05 0 29.6-13.48 29.18-27.63 28.73-27.63 20.83-3.68 16.5-3.68 8.6-27.63 8.15-27.63 7.7-13.45 7.28 0ZM50.32 0.63L50.32 0.63Q45.07 0.63 42.36-2.21 39.65-5.05 39.65-10.38L39.65-10.38 39.65-14.1Q39.65-19.4 42.37-22.23 45.1-25.05 50.32-25.05L50.32-25.05Q55.57-25.05 58.29-22.23 61-19.4 61-14.1L61-14.1 61-10.38Q61-5.05 58.29-2.21 55.57 0.63 50.32 0.63ZM50.32-2.68L50.32-2.68Q53.57-2.68 55.26-4.6 56.95-6.53 56.95-10.15L56.95-10.15 56.95-14.33Q56.95-17.93 55.26-19.84 53.57-21.75 50.32-21.75L50.32-21.75Q47.1-21.75 45.4-19.84 43.7-17.93 43.7-14.33L43.7-14.33 43.7-10.15Q43.7-6.53 45.4-4.6 47.1-2.68 50.32-2.68ZM75.37-2.78L75.97-2.78 82.72-24.4 86.92-24.4 79 0 72.35 0 64.42-24.4 68.62-24.4 75.37-2.78ZM95.44 0L91.39 0 91.39-24.4 95.44-24.4 95.44 0ZM93.42-28.4L93.42-28.4Q92.17-28.4 91.56-29.06 90.94-29.73 90.94-30.88L90.94-30.88 90.94-31Q90.94-32.18 91.56-32.83 92.17-33.48 93.42-33.48L93.42-33.48Q94.67-33.48 95.29-32.83 95.92-32.18 95.92-31L95.92-31 95.92-30.88Q95.92-29.7 95.29-29.05 94.67-28.4 93.42-28.4ZM112.39 0.55L112.39 0.55Q106.82 0.55 103.99-2.18 101.17-4.9 101.17-9.98L101.17-9.98 101.17-14.33Q101.17-19.48 103.79-22.26 106.42-25.05 111.47-25.05L111.47-25.05Q114.87-25.05 117.14-23.79 119.42-22.53 120.57-20.2 121.72-17.88 121.72-14.65L121.72-14.65 121.72-13.75Q121.72-12.95 121.65-12.15 121.59-11.35 121.49-10.58L121.49-10.58 117.77-10.58Q117.82-11.78 117.83-12.85 117.84-13.93 117.84-14.83L117.84-14.83Q117.84-17.05 117.13-18.59 116.42-20.13 115-20.94 113.59-21.75 111.47-21.75L111.47-21.75Q108.32-21.75 106.74-19.93 105.17-18.1 105.17-14.7L105.17-14.7 105.17-12.38 105.19-11.88 105.19-9.55Q105.19-8.03 105.64-6.8 106.09-5.58 107.05-4.69 108.02-3.8 109.5-3.34 110.99-2.88 113.04-2.88L113.04-2.88Q115.42-2.88 117.47-3.5 119.52-4.13 121.32-5.2L121.32-5.2 120.94-1.7Q119.32-0.68 117.17-0.06 115.02 0.55 112.39 0.55ZM120.64-10.58L103.29-10.58 103.29-13.63 120.64-13.63 120.64-10.58ZM139.16 0L135.01 0 135.01-31.28 139.16-31.28 139.16 0ZM148.74-28.48L125.44-28.48 125.44-31.95 148.74-31.95 148.74-28.48ZM174.04 0L169.99 0 169.99-15.18Q169.99-17.15 169.45-18.57 168.91-20 167.7-20.79 166.49-21.58 164.39-21.58L164.39-21.58Q162.46-21.58 161.06-20.85 159.66-20.13 158.8-18.89 157.94-17.65 157.59-16.07L157.59-16.07 156.69-18.95 157.74-18.95Q158.11-20.6 159.11-21.96 160.11-23.33 161.8-24.14 163.49-24.95 165.91-24.95L165.91-24.95Q168.81-24.95 170.6-23.85 172.39-22.75 173.21-20.69 174.04-18.63 174.04-15.63L174.04-15.63 174.04 0ZM157.71 0L153.66 0 153.66-33.13 157.69-33.13 157.69-25.18 157.56-18.18 157.71-17.85 157.71 0ZM190.56 0.55L190.56 0.55Q184.98 0.55 182.16-2.18 179.33-4.9 179.33-9.98L179.33-9.98 179.33-14.33Q179.33-19.48 181.96-22.26 184.58-25.05 189.63-25.05L189.63-25.05Q193.03-25.05 195.31-23.79 197.58-22.53 198.73-20.2 199.88-17.88 199.88-14.65L199.88-14.65 199.88-13.75Q199.88-12.95 199.82-12.15 199.76-11.35 199.66-10.58L199.66-10.58 195.93-10.58Q195.98-11.78 196-12.85 196.01-13.93 196.01-14.83L196.01-14.83Q196.01-17.05 195.3-18.59 194.58-20.13 193.17-20.94 191.76-21.75 189.63-21.75L189.63-21.75Q186.48-21.75 184.91-19.93 183.33-18.1 183.33-14.7L183.33-14.7 183.33-12.38 183.36-11.88 183.36-9.55Q183.36-8.03 183.81-6.8 184.26-5.58 185.22-4.69 186.18-3.8 187.67-3.34 189.16-2.88 191.21-2.88L191.21-2.88Q193.58-2.88 195.63-3.5 197.68-4.13 199.48-5.2L199.48-5.2 199.11-1.7Q197.48-0.68 195.33-0.06 193.18 0.55 190.56 0.55ZM198.81-10.58L181.46-10.58 181.46-13.63 198.81-13.63 198.81-10.58ZM223.78 0L219.76 0 219.93-5.93 219.78-6.55 219.78-14.33 219.81-15.75Q219.81-18.73 218.29-20.15 216.78-21.58 213.51-21.58L213.51-21.58Q210.88-21.58 208.69-20.83 206.51-20.08 204.81-19.07L204.81-19.07 205.18-22.53Q206.13-23.1 207.44-23.66 208.76-24.23 210.44-24.6 212.13-24.98 214.16-24.98L214.16-24.98Q216.78-24.98 218.62-24.34 220.46-23.7 221.59-22.5 222.73-21.3 223.26-19.6 223.78-17.9 223.78-15.8L223.78-15.8 223.78 0ZM211.36 0.53L211.36 0.53Q207.73 0.53 205.79-1.24 203.86-3 203.86-6.28L203.86-6.28 203.86-7Q203.86-10.38 205.94-12.04 208.03-13.7 212.58-14.35L212.58-14.35 220.31-15.45 220.53-12.5 213.08-11.43Q210.28-11.03 209.08-10.06 207.88-9.1 207.88-7.23L207.88-7.23 207.88-6.83Q207.88-4.9 209.07-3.88 210.26-2.85 212.63-2.85L212.63-2.85Q214.73-2.85 216.23-3.58 217.73-4.3 218.66-5.53 219.58-6.75 219.91-8.25L219.91-8.25 220.53-5.5 219.76-5.5Q219.41-3.9 218.44-2.53 217.48-1.15 215.76-0.31 214.03 0.53 211.36 0.53ZM238.85 0.5L238.85 0.5Q236.03 0.5 234.3-0.35 232.58-1.2 231.8-2.93 231.03-4.65 231.03-7.23L231.03-7.23 231.03-22.63 235.03-22.63 235.03-7.7Q235.03-5.3 236.13-4.16 237.23-3.03 239.83-3.03L239.83-3.03Q241.3-3.03 242.67-3.35 244.03-3.68 245.23-4.28L245.23-4.28 244.85-0.8Q243.68-0.2 242.1 0.15 240.53 0.5 238.85 0.5ZM244.6-20.8L227.03-20.8 227.03-24.05 244.98-24.05 244.6-20.8ZM234.93-23.65L231.05-23.65 231.03-30.5 235.1-31.03 234.93-23.65ZM260 0.55L260 0.55Q254.43 0.55 251.6-2.18 248.78-4.9 248.78-9.98L248.78-9.98 248.78-14.33Q248.78-19.48 251.4-22.26 254.03-25.05 259.08-25.05L259.08-25.05Q262.48-25.05 264.75-23.79 267.03-22.53 268.18-20.2 269.33-17.88 269.33-14.65L269.33-14.65 269.33-13.75Q269.33-12.95 269.26-12.15 269.2-11.35 269.1-10.58L269.1-10.58 265.38-10.58Q265.43-11.78 265.44-12.85 265.45-13.93 265.45-14.83L265.45-14.83Q265.45-17.05 264.74-18.59 264.03-20.13 262.61-20.94 261.2-21.75 259.08-21.75L259.08-21.75Q255.93-21.75 254.35-19.93 252.78-18.1 252.78-14.7L252.78-14.7 252.78-12.38 252.8-11.88 252.8-9.55Q252.8-8.03 253.25-6.8 253.7-5.58 254.66-4.69 255.63-3.8 257.11-3.34 258.6-2.88 260.65-2.88L260.65-2.88Q263.03-2.88 265.08-3.5 267.13-4.13 268.93-5.2L268.93-5.2 268.55-1.7Q266.93-0.68 264.78-0.06 262.63 0.55 260 0.55ZM268.25-10.58L250.9-10.58 250.9-13.63 268.25-13.63 268.25-10.58ZM278.57-14.93L278.57-14.93 277.65-18.05 278.65-18.1Q279.45-21.2 281.4-22.99 283.35-24.78 286.57-24.78L286.57-24.78Q287.37-24.78 288.01-24.65 288.65-24.53 289.15-24.35L289.15-24.35 289.4-20.43Q288.77-20.63 288.01-20.75 287.25-20.88 286.32-20.88L286.32-20.88Q283.57-20.88 281.54-19.35 279.5-17.82 278.57-14.93ZM278.77 0L274.72 0 274.72-24.4 278.67-24.4 278.47-17.2 278.77-16.9 278.77 0ZM294.85 0.48L294.85 0.48Q293.55 0.48 292.93-0.24 292.32-0.95 292.32-2.25L292.32-2.25 292.32-2.5Q292.32-3.78 292.93-4.48 293.55-5.18 294.85-5.18L294.85-5.18Q296.12-5.18 296.75-4.48 297.37-3.78 297.37-2.5L297.37-2.5 297.37-2.25Q297.37-0.95 296.75-0.24 296.12 0.48 294.85 0.48ZM312.32 0.55L312.32 0.55Q307.07 0.55 304.51-2.29 301.94-5.13 301.94-10.33L301.94-10.33 301.94-14.13Q301.94-19.35 304.52-22.16 307.09-24.98 312.32-24.98L312.32-24.98Q313.87-24.98 315.14-24.69 316.42-24.4 317.43-23.94 318.44-23.48 319.14-22.98L319.14-22.98 319.49-19.45Q318.32-20.35 316.71-20.98 315.09-21.6 312.92-21.6L312.92-21.6Q309.42-21.6 307.71-19.66 305.99-17.73 305.99-14.03L305.99-14.03 305.99-10.43Q305.99-6.8 307.71-4.85 309.42-2.9 312.92-2.9L312.92-2.9Q315.17-2.9 316.81-3.53 318.44-4.15 319.72-5.05L319.72-5.05 319.34-1.48Q318.24-0.73 316.47-0.09 314.69 0.55 312.32 0.55ZM334.32 0.63L334.32 0.63Q329.07 0.63 326.35-2.21 323.64-5.05 323.64-10.38L323.64-10.38 323.64-14.1Q323.64-19.4 326.37-22.23 329.09-25.05 334.32-25.05L334.32-25.05Q339.57-25.05 342.28-22.23 344.99-19.4 344.99-14.1L344.99-14.1 344.99-10.38Q344.99-5.05 342.28-2.21 339.57 0.63 334.32 0.63ZM334.32-2.68L334.32-2.68Q337.57-2.68 339.25-4.6 340.94-6.53 340.94-10.15L340.94-10.15 340.94-14.33Q340.94-17.93 339.25-19.84 337.57-21.75 334.32-21.75L334.32-21.75Q331.09-21.75 329.39-19.84 327.69-17.93 327.69-14.33L327.69-14.33 327.69-10.15Q327.69-6.53 329.39-4.6 331.09-2.68 334.32-2.68ZM385.14 0L381.09 0 381.09-15.28Q381.09-17.2 380.6-18.61 380.11-20.03 379-20.8 377.89-21.58 376.01-21.58L376.01-21.58Q374.24-21.58 372.94-20.85 371.64-20.13 370.84-18.91 370.04-17.7 369.71-16.15L369.71-16.15 369.09-19.03 369.59-19.03Q369.99-20.6 370.94-21.95 371.89-23.3 373.51-24.13 375.14-24.95 377.54-24.95L377.54-24.95Q380.26-24.95 381.93-23.88 383.59-22.8 384.36-20.74 385.14-18.68 385.14-15.73L385.14-15.73 385.14 0ZM354.66 0L350.61 0 350.61-24.4 354.66-24.4 354.49-18.55 354.66-18.3 354.66 0ZM369.89 0L365.86 0 365.86-15.28Q365.86-17.2 365.38-18.61 364.89-20.03 363.79-20.8 362.69-21.58 360.81-21.58L360.81-21.58Q359.01-21.58 357.71-20.85 356.41-20.13 355.61-18.89 354.81-17.65 354.49-16.07L354.49-16.07 353.74-18.95 354.64-18.95Q355.01-20.6 355.94-21.96 356.86-23.33 358.45-24.14 360.04-24.95 362.31-24.95L362.31-24.95Q365.69-24.95 367.45-23.2 369.21-21.45 369.66-18.1L369.66-18.1Q369.79-17.6 369.84-17.01 369.89-16.43 369.89-15.85L369.89-15.85 369.89 0Z" opacity="1" transform="matrix(1,0,0,1,0,0)" fill="#fe0039" class="wordmark-text-0" data-fill-palette-color="primary" id="text-0"></path></svg></g></svg></g></svg></g></svg></g><g transform="matrix(1,0,0,1,166.34694803429988,0)"><svg viewBox="0 0 64.80370393140014 48.803703931400136" height="48.803703931400136" width="64.80370393140014"><g><svg xmlns="http://www.w3.org/2000/svg" viewBox="2 2 28 28" x="8" y="0" height="48.803703931400136" width="48.803703931400136" class="icon-icon-0" data-fill-palette-color="accent" id="icon-0"><g data-name="Layer 2" fill="#c1c1c1" data-fill-palette-color="accent"><path d="M16 2A14 14 0 1 0 30 16 14 14 0 0 0 16 2M16 28A12 12 0 1 1 28 16 12 12 0 0 1 16 28" fill="#c1c1c1" data-fill-palette-color="accent"></path><path d="M17 5.82A1 1 0 0 0 15.1 5.82L13 12H6.54A1 1 0 0 0 6 13.81L11.26 17.63 9.26 23.81A1 1 0 0 0 10.8 24.93L16 21.11 21.26 24.93A1 1 0 0 0 22.8 23.81L20.8 17.63 26 13.81A1 1 0 0 0 25.46 12H19ZM19 16.44A1 1 0 0 0 18.64 17.56L19.92 21.5 16.57 19.06A1 1 0 0 0 15.39 19.06L12.06 21.5 13.34 17.56A1 1 0 0 0 13 16.44L9.62 14H13.77A1 1 0 0 0 14.77 13.31L16 9.37 17.28 13.31A1 1 0 0 0 18.28 14H22.43Z" fill="#c1c1c1" data-fill-palette-color="accent"></path></g></svg></g></svg></g><g><rect width="89.81382803429992" height="3.1846370375948783" y="44.61906689380526" x="231.15065196570004" fill="#c1c1c1" data-fill-palette-color="secondary"></rect><rect width="89.81382803429992" height="3.1846370375948783" y="44.61906689380526" x="76.53311999999997" fill="#c1c1c1" data-fill-palette-color="secondary"></rect></g></svg></g><defs></defs></svg><rect width="395.52" height="103.45836488265597" fill="none" stroke="none" visibility="hidden"></rect></g></svg></g></svg>